<svg width="415" height="33" viewBox="0 0 415 33" fill="none" xmlns="http://www.w3.org/2000/svg">
<path d="M403.232 17.2415C405.01 17.2415 406.53 17.3108 407.799 17.4581C409.068 17.6053 410.139 17.8219 411.002 18.1165C411.883 18.4024 412.574 18.7577 413.092 19.1822C413.61 19.6067 414.007 20.1006 414.292 20.6551C414.577 21.2009 414.75 21.8074 414.836 22.4832C414.922 23.159 414.974 23.8955 414.974 24.6839C414.974 25.4723 414.905 26.2174 414.758 26.9192C414.62 27.6037 414.378 28.2362 414.016 28.8167C413.653 29.3885 413.17 29.9083 412.548 30.3589C411.926 30.8094 411.141 31.1906 410.191 31.5112C409.232 31.8231 408.084 32.0657 406.737 32.2216C405.399 32.3949 403.827 32.4729 402.032 32.4729H397.715C396.091 32.4729 394.675 32.4123 393.467 32.291C392.249 32.1697 391.204 31.9791 390.332 31.7365C389.452 31.4765 388.726 31.156 388.157 30.7747C387.587 30.3762 387.121 29.9257 386.775 29.4058C386.438 28.8773 386.205 28.2795 386.067 27.6124C385.929 26.9366 385.869 26.1914 385.869 25.377H389.106C389.106 26.3907 389.253 27.1878 389.547 27.7596C389.84 28.3315 390.324 28.7733 390.997 29.0593C391.671 29.3452 392.551 29.5185 393.648 29.6051C394.753 29.6744 396.109 29.7091 397.732 29.7091H402.049C403.94 29.7091 405.502 29.6224 406.754 29.4405C408.006 29.2585 408.999 28.9726 409.742 28.5741C410.484 28.1755 411.002 27.6643 411.313 27.0319C411.615 26.3907 411.771 25.611 411.771 24.6926C411.771 23.7828 411.667 23.0204 411.451 22.4052C411.253 21.7988 410.838 21.3136 410.217 20.9497C409.612 20.5858 408.749 20.3345 407.635 20.1872C406.521 20.0313 405.062 19.9533 403.266 19.9533H398.811C396.834 19.9533 395.133 19.884 393.717 19.7367C392.31 19.5894 391.135 19.3815 390.177 19.1129C389.219 18.827 388.459 18.4891 387.88 18.0819C387.31 17.666 386.87 17.1895 386.568 16.661C386.274 16.1325 386.084 15.5433 385.998 14.9022C385.912 14.2437 385.86 13.5419 385.86 12.7881C385.86 11.9997 385.929 11.2632 386.059 10.5874C386.205 9.91164 386.473 9.30515 386.853 8.75932C387.233 8.20482 387.759 7.71963 388.424 7.28642C389.089 6.86188 389.935 6.50666 390.971 6.22074C392.016 5.92616 393.268 5.70956 394.736 5.56227C396.195 5.41498 397.913 5.34567 399.899 5.34567H403.137C404.76 5.34567 406.176 5.40632 407.385 5.52762C408.602 5.64025 409.647 5.83086 410.519 6.08212C411.4 6.33337 412.125 6.64528 412.695 7.0265C413.282 7.39906 413.739 7.84959 414.076 8.3781C414.422 8.89794 414.663 9.4871 414.801 10.1542C414.94 10.8214 415 11.5578 415 12.3722H411.762C411.762 11.3585 411.615 10.5614 411.322 9.98962C411.028 9.41779 410.545 8.98458 409.871 8.70733C409.198 8.41276 408.309 8.23081 407.203 8.1615C406.098 8.08352 404.743 8.0402 403.12 8.0402H399.882C397.723 8.0402 395.945 8.11818 394.554 8.27413C393.164 8.42142 392.059 8.67268 391.248 9.03657C390.436 9.40046 389.875 9.88565 389.564 10.4921C389.253 11.0986 389.089 11.8611 389.089 12.7795C389.089 13.3426 389.132 13.8451 389.21 14.287C389.288 14.7289 389.443 15.1188 389.685 15.4567C389.935 15.7859 390.272 16.0631 390.712 16.2884C391.153 16.5137 391.731 16.7043 392.448 16.8429C393.164 16.9902 394.045 17.0942 395.081 17.1635C396.126 17.2241 397.369 17.2501 398.811 17.2501H403.232V17.2415ZM342.931 8.03154V31.8578H339.693V5.86552H345.09L360.182 28.6087L375.275 5.86552H380.438V31.8578H377.2V8.38676L361.823 31.8578H358.55L342.931 8.03154ZM309.474 5.86552H335.376V8.57737H312.712V17.2415H334.297V19.9446H312.712V29.1546H335.376V31.8664H309.474V5.86552ZM304.078 5.86552V8.57737H291.127V31.8664H287.889V8.57737H274.938V5.86552H304.078ZM258.887 17.2415C260.666 17.2415 262.185 17.3108 263.454 17.4581C264.724 17.6053 265.794 17.8219 266.658 18.1165C267.538 18.4024 268.229 18.7577 268.747 19.1822C269.265 19.6067 269.662 20.1006 269.947 20.6551C270.232 21.2009 270.405 21.8074 270.491 22.4832C270.578 23.159 270.629 23.8955 270.629 24.6839C270.629 25.4723 270.56 26.2174 270.414 26.9192C270.275 27.6037 270.034 28.2362 269.671 28.8167C269.308 29.3885 268.825 29.9083 268.203 30.3589C267.582 30.8094 266.796 31.1906 265.846 31.5112C264.888 31.8231 263.739 32.0657 262.392 32.2216C261.054 32.3949 259.483 32.4729 257.687 32.4729H253.37C251.747 32.4729 250.331 32.4123 249.122 32.291C247.904 32.1697 246.86 31.9791 245.988 31.7365C245.107 31.4765 244.382 31.156 243.812 30.7747C243.242 30.3762 242.776 29.9257 242.43 29.4058C242.094 28.8773 241.861 28.2795 241.722 27.6124C241.584 26.9366 241.524 26.1914 241.524 25.377H244.762C244.762 26.3907 244.908 27.1878 245.202 27.7596C245.496 28.3315 245.979 28.7733 246.653 29.0593C247.326 29.3452 248.207 29.5185 249.303 29.6051C250.408 29.6744 251.764 29.7091 253.387 29.7091H257.704C259.595 29.7091 261.158 29.6224 262.41 29.4405C263.662 29.2585 264.655 28.9726 265.397 28.5741C266.14 28.1755 266.658 27.6643 266.969 27.0319C267.271 26.3907 267.426 25.611 267.426 24.6926C267.426 23.7828 267.323 23.0204 267.107 22.4052C266.908 21.7988 266.494 21.3136 265.872 20.9497C265.268 20.5858 264.404 20.3345 263.29 20.1872C262.177 20.0313 260.717 19.9533 258.922 19.9533H254.466C252.489 19.9533 250.788 19.884 249.372 19.7367C247.965 19.5894 246.791 19.3815 245.832 19.1129C244.874 18.827 244.114 18.4891 243.536 18.0819C242.966 17.666 242.525 17.1895 242.223 16.661C241.93 16.1325 241.74 15.5433 241.653 14.9022C241.567 14.2437 241.515 13.5419 241.515 12.7881C241.515 11.9997 241.584 11.2632 241.714 10.5874C241.861 9.91164 242.128 9.30515 242.508 8.75932C242.888 8.20482 243.415 7.71963 244.08 7.28642C244.744 6.86188 245.591 6.50666 246.627 6.22074C247.671 5.92616 248.923 5.70956 250.391 5.56227C251.85 5.41498 253.568 5.34567 255.554 5.34567H258.792C260.415 5.34567 261.831 5.40632 263.04 5.52762C264.257 5.64025 265.302 5.83086 266.174 6.08212C267.055 6.33337 267.78 6.64528 268.35 7.0265C268.937 7.39906 269.395 7.84959 269.731 8.3781C270.077 8.89794 270.319 9.4871 270.457 10.1542C270.595 10.8214 270.655 11.5578 270.655 12.3722H267.418C267.418 11.3585 267.271 10.5614 266.977 9.98962C266.684 9.41779 266.2 8.98458 265.527 8.70733C264.853 8.41276 263.964 8.23081 262.859 8.1615C261.754 8.08352 260.398 8.0402 258.775 8.0402H255.537C253.378 8.0402 251.6 8.11818 250.21 8.27413C248.82 8.42142 247.715 8.67268 246.903 9.03657C246.091 9.40046 245.53 9.88565 245.219 10.4921C244.908 11.0986 244.744 11.8611 244.744 12.7795C244.744 13.3426 244.788 13.8451 244.865 14.287C244.943 14.7289 245.098 15.1188 245.34 15.4567C245.591 15.7859 245.927 16.0631 246.368 16.2884C246.808 16.5137 247.386 16.7043 248.103 16.8429C248.82 16.9902 249.7 17.0942 250.736 17.1635C251.781 17.2241 253.024 17.2501 254.466 17.2501H258.887V17.2415ZM204.38 5.86552H208.697L220.569 18.5931L232.441 5.86552H236.758L222.184 21.0277V31.8578H218.946V21.0277L204.38 5.86552ZM137.449 10.4142C137.449 8.78531 137.276 7.50303 136.922 6.55864C136.568 5.61426 135.989 4.89514 135.178 4.40995C134.366 3.92476 133.304 3.61285 131.983 3.47423C130.662 3.3356 129.03 3.27496 127.088 3.27496H116.684C114.957 3.27496 113.498 3.32694 112.315 3.43957C111.14 3.53488 110.173 3.73415 109.396 4.04606C108.619 4.35796 108.032 4.8085 107.618 5.38899C107.203 5.96948 106.893 6.74059 106.711 7.7023C106.53 8.66401 106.418 9.85099 106.383 11.2546C106.357 12.6495 106.34 14.3217 106.34 16.2711C106.34 18.2205 106.357 19.9013 106.383 21.3049C106.426 22.6998 106.539 23.8781 106.728 24.8399C106.918 25.8016 107.212 26.5727 107.618 27.1532C108.032 27.7337 108.628 28.1842 109.396 28.4961C110.165 28.808 111.14 29.0159 112.315 29.1286C113.506 29.2239 114.957 29.2672 116.684 29.2672H127.105C128.616 29.2672 129.92 29.2239 131.008 29.1459C132.095 29.0679 133.028 28.912 133.796 28.6954C134.565 28.4788 135.186 28.1842 135.661 27.803C136.136 27.4217 136.499 26.9539 136.758 26.3821C137.026 25.8016 137.207 25.1084 137.302 24.3113C137.397 23.4969 137.44 22.5525 137.44 21.4695V19.5114H121.864V16.2624H141.334V21.4609C141.334 22.7605 141.256 23.9388 141.092 24.9958C140.928 26.0355 140.643 26.9712 140.22 27.7943C139.814 28.6087 139.27 29.3105 138.58 29.9083C137.889 30.5062 137.025 31 135.972 31.3899C134.919 31.7711 133.667 32.0484 132.208 32.2216C130.749 32.4123 129.048 32.5076 127.105 32.5076H116.684C114.309 32.5076 112.306 32.3603 110.674 32.057C109.051 31.7711 107.721 31.3379 106.668 30.7574C105.615 30.1596 104.803 29.4145 104.216 28.5221C103.646 27.6297 103.232 26.5813 102.964 25.377C102.705 24.1727 102.558 22.8125 102.515 21.2962C102.472 19.78 102.455 18.0992 102.455 16.2624C102.455 14.4256 102.472 12.7448 102.515 11.2286C102.558 9.71237 102.705 8.35211 102.964 7.1478C103.232 5.94349 103.655 4.89514 104.216 4.00274C104.794 3.11034 105.615 2.37389 106.668 1.7934C107.721 1.19558 109.06 0.753708 110.674 0.476457C112.306 0.16455 114.309 0.0172607 116.684 0.0172607H127.088C129.03 0.0172607 130.731 0.112566 132.19 0.303175C133.65 0.476457 134.902 0.753708 135.955 1.13493C137.008 1.49882 137.88 1.96668 138.562 2.53851C139.262 3.11034 139.814 3.77747 140.22 4.54857C140.635 5.31968 140.928 6.19475 141.092 7.16513C141.256 8.1355 141.334 9.22718 141.334 10.4142H137.449ZM50.9782 3.26629V31.8578H47.0928V0.667067H53.5684L71.6827 27.9589L89.797 0.667067H95.9877V31.8578H92.1023V3.69083L73.6427 31.8578H69.7141L50.9782 3.26629ZM31.5515 21.4609L21.1906 3.26629L10.8297 21.4609H31.5515ZM33.4941 24.7099H8.88699L5.00165 31.8578H0.46875L18.6003 0.667067H23.7808L41.9124 31.8578H37.3795L33.4941 24.7099Z" fill="white"/>
<path d="M185.55 14.3131C187.683 14.3131 189.513 14.3997 191.033 14.573C192.561 14.7463 193.839 15.0149 194.875 15.3614C195.928 15.6993 196.766 16.1239 197.387 16.6437C198.009 17.1635 198.484 17.744 198.821 18.4112C199.157 19.061 199.373 19.7888 199.468 20.6032C199.58 21.4176 199.632 22.2927 199.632 23.2457C199.632 24.1988 199.546 25.0912 199.373 25.9229C199.209 26.746 198.916 27.5085 198.484 28.2016C198.052 28.8947 197.465 29.5099 196.723 30.047C195.98 30.5842 195.039 31.0521 193.891 31.4246C192.742 31.7972 191.361 32.0918 189.746 32.2737C188.14 32.473 186.258 32.5769 184.1 32.5769H178.919C176.976 32.5769 175.275 32.499 173.816 32.3517C172.357 32.2044 171.105 31.9791 170.052 31.6845C168.999 31.3726 168.126 30.9914 167.444 30.5236C166.754 30.047 166.201 29.5012 165.787 28.8774C165.381 28.2449 165.096 27.5258 164.94 26.7287C164.776 25.9143 164.699 25.0219 164.699 24.0515H168.584C168.584 25.2731 168.757 26.2262 169.111 26.9106C169.465 27.6038 170.043 28.1236 170.855 28.4702C171.666 28.8081 172.72 29.0247 174.032 29.12C175.353 29.198 176.985 29.2413 178.928 29.2413H184.108C186.379 29.2413 188.253 29.1286 189.755 28.912C191.257 28.6954 192.449 28.3489 193.338 27.8724C194.227 27.3958 194.858 26.7807 195.22 26.0269C195.583 25.2558 195.764 24.3201 195.764 23.2284C195.764 22.1367 195.635 21.2183 195.376 20.4906C195.134 19.7628 194.642 19.1736 193.899 18.7404C193.174 18.3072 192.138 18.004 190.8 17.8307C189.461 17.6401 187.717 17.5448 185.559 17.5448H180.214C177.84 17.5448 175.802 17.4581 174.101 17.2848C172.418 17.1116 171.002 16.8603 169.853 16.5311C168.705 16.1932 167.79 15.7773 167.099 15.2921C166.408 14.7896 165.882 14.2264 165.519 13.5853C165.165 12.9528 164.94 12.2423 164.828 11.4712C164.716 10.6828 164.664 9.8424 164.664 8.93267C164.664 7.98828 164.742 7.10455 164.906 6.29012C165.079 5.4757 165.398 4.74792 165.856 4.09811C166.313 3.43098 166.944 2.84182 167.738 2.33064C168.532 1.81946 169.551 1.38625 170.794 1.04835C172.046 0.693126 173.557 0.433204 175.31 0.259922C177.063 0.0866408 179.126 0 181.501 0H185.386C187.329 0 189.03 0.0779767 190.489 0.225266C191.948 0.363891 193.2 0.580493 194.253 0.8924C195.307 1.18698 196.179 1.5682 196.861 2.0274C197.56 2.47793 198.113 3.0151 198.518 3.65624C198.933 4.28006 199.226 4.99051 199.391 5.78761C199.555 6.5847 199.632 7.4771 199.632 8.44748H195.747C195.747 7.22584 195.574 6.27279 195.22 5.58833C194.866 4.89521 194.288 4.38403 193.476 4.04613C192.665 3.6909 191.603 3.4743 190.282 3.39632C188.961 3.30101 187.329 3.25769 185.386 3.25769H181.501C178.91 3.25769 176.778 3.353 175.103 3.54361C173.428 3.71689 172.107 4.02013 171.14 4.45334C170.173 4.88654 169.491 5.46704 169.119 6.20348C168.748 6.93993 168.55 7.84966 168.55 8.94133C168.55 9.61713 168.593 10.2236 168.688 10.7521C168.783 11.2806 168.973 11.7485 169.258 12.1557C169.551 12.5456 169.966 12.8835 170.492 13.1521C171.019 13.4207 171.71 13.6459 172.573 13.8192C173.436 13.9925 174.49 14.1225 175.733 14.2091C176.985 14.2784 178.479 14.3131 180.206 14.3131H185.55Z" fill="#1E78FF"/>
</svg>
